<?xml version="1.0" standalone="no"?>
<!DOCTYPE svg PUBLIC "-//W3C//DTD SVG 20010904//EN"
 "http://www.w3.org/TR/2001/REC-SVG-20010904/DTD/svg10.dtd">
<svg version="1.0" xmlns="http://www.w3.org/2000/svg"
 width="1024.000000pt" height="768.000000pt" viewBox="0 0 1024.000000 768.000000"
 preserveAspectRatio="xMidYMid meet">

<g transform="translate(0.000000,768.000000) scale(0.100000,-0.100000)"
fill="#000000" stroke="none">
<path d="M3932 6723 c-5 -10 -19 -54 -30 -98 -56 -214 -92 -526 -92 -807 0
-159 -1 -171 -31 -258 -16 -50 -37 -138 -47 -195 l-16 -104 -85 -6 c-115 -9
-268 -33 -293 -46 -43 -23 1 -34 170 -41 92 -3 176 -7 187 -7 17 -1 20 -9 22
-55 l2 -54 -54 -22 c-30 -12 -55 -26 -55 -31 0 -12 45 -22 79 -17 27 4 30 1
36 -30 3 -19 5 -35 3 -37 -2 -1 -37 -15 -78 -30 -154 -57 -266 -117 -255 -135
10 -17 36 -12 190 35 81 25 149 44 151 43 1 -2 14 -52 29 -113 93 -380 291
-674 586 -871 254 -170 527 -243 1054 -284 292 -23 469 -52 618 -101 311 -103
506 -292 563 -545 35 -161 5 -364 -81 -534 -84 -167 -254 -334 -435 -425 -187
-94 -380 -134 -830 -170 -497 -40 -781 -114 -995 -258 -149 -100 -253 -218
-326 -371 -52 -109 -57 -167 -16 -202 53 -46 116 -25 215 69 303 289 545 380
1162 437 707 65 1032 178 1305 454 187 188 319 441 380 732 23 107 31 339 15
445 -41 281 -185 511 -427 682 -264 186 -557 279 -1208 382 -352 56 -517 102
-710 198 -214 106 -427 290 -546 472 l-39 60 71 22 c76 23 95 38 76 61 -9 11
-30 13 -98 7 -76 -5 -87 -4 -93 11 -9 23 -6 24 60 38 34 6 61 18 68 29 18 28
-10 38 -98 35 l-79 -3 -13 37 c-12 34 -11 36 9 42 12 3 63 6 113 6 94 0 133
13 122 42 -7 17 -84 34 -200 44 -72 6 -78 8 -78 29 0 76 140 131 273 106 32
-6 122 -36 198 -66 191 -76 263 -91 347 -76 36 7 90 24 120 39 62 30 156 120
212 202 56 82 166 307 222 455 76 197 70 191 104 114 70 -157 166 -342 225
-429 145 -217 316 -334 463 -316 28 3 98 21 155 41 136 46 189 52 245 31 57
-22 78 -47 80 -93 l1 -37 -75 -12 c-89 -14 -112 -22 -107 -38 7 -21 52 -36
114 -36 34 0 65 -5 68 -10 4 -6 4 -24 0 -40 -6 -29 -9 -30 -60 -30 -30 0 -57
-5 -60 -10 -10 -16 13 -38 46 -45 34 -8 42 -18 34 -44 -5 -16 -14 -18 -74 -13
-47 3 -71 1 -76 -7 -11 -18 23 -50 61 -57 19 -3 34 -12 34 -18 0 -41 -138
-201 -225 -261 -30 -21 -53 -40 -51 -42 6 -6 88 29 147 64 59 34 139 106 201
181 l36 44 184 -57 c100 -32 205 -64 231 -72 56 -17 90 -11 66 12 -40 39 -254
134 -381 170 -59 17 -68 28 -45 58 10 15 19 16 66 7 68 -13 151 -13 151 0 0
13 -34 30 -110 54 -36 12 -67 23 -69 26 -1 3 0 21 4 41 l7 36 201 7 c111 4
212 10 225 13 26 6 29 29 5 37 -47 14 -205 36 -303 42 l-110 7 0 51 c-1 75
-24 192 -53 266 -24 62 -25 76 -30 335 -4 157 -12 318 -21 385 -21 151 -55
323 -76 385 -15 44 -21 50 -44 48 -62 -4 -346 -154 -525 -277 -57 -39 -149
-108 -203 -154 l-99 -84 -92 14 c-127 18 -521 16 -652 -4 l-100 -15 -44 36
c-244 201 -395 302 -606 406 -174 87 -199 95 -213 68z m343 -395 c72 -54 148
-113 170 -132 36 -32 38 -36 20 -42 -55 -19 -267 -110 -327 -140 -37 -19 -69
-34 -70 -34 -2 0 -3 19 -3 43 0 23 -4 138 -9 256 l-8 213 49 -33 c26 -18 107
-77 178 -131z m2095 -95 c-7 -137 -13 -249 -15 -251 -2 -2 -52 21 -111 51 -60
29 -147 69 -194 87 -47 18 -89 36 -93 40 -9 8 125 118 273 226 114 83 144 103
149 98 2 -2 -2 -115 -9 -251z"/>
<path d="M5466 5229 c-99 -15 -124 -45 -92 -108 20 -37 88 -97 131 -115 32
-14 35 -18 25 -36 -17 -32 -81 -69 -130 -76 -54 -7 -118 8 -148 36 -29 27 -33
25 -21 -10 6 -16 26 -43 45 -59 81 -72 212 -43 260 58 l21 43 13 -31 c19 -46
81 -98 128 -106 56 -9 116 9 146 46 14 17 26 34 26 39 0 5 3 17 7 27 5 14 -1
12 -25 -9 -41 -34 -93 -44 -152 -29 -50 13 -86 36 -107 68 -14 20 -12 23 24
42 44 22 119 99 133 137 7 16 7 32 0 43 -18 35 -174 57 -284 40z"/>
</g>
</svg>
